<svg width="91" height="130" viewBox="0 0 91 130" fill="none" xmlns="http://www.w3.org/2000/svg">
<g clip-path="url(#clip0)">
<rect width="91" height="130" fill="white"/>
<path d="M52.5728 42.4199C53.5219 43.6787 54.1886 44.5589 54.5728 45.0604C55.7139 46.5501 56.459 47.5241 56.5346 47.8873C56.7237 48.7964 56.2115 49.974 54.9981 51.4199" stroke="#2A324B" stroke-width="3" stroke-linecap="round"/>
<path d="M72.0605 27.4707C69.8328 25.5647 68.0926 25.5878 66.0728 25.9199C64.053 26.252 61.7764 26.8543 60.01 29.347" stroke="#2A324B" stroke-width="3" stroke-linecap="round"/>
<path d="M68.984 34.4248C66.9394 34.5515 64.9041 35.7653 62.8782 38.0663" stroke="#2A324B" stroke-width="3" stroke-linecap="round"/>
<path d="M42.1154 42.4707C39.7355 43.2568 41.779 42.1834 41.6137 42.0557C39.6374 40.528 38.2382 40.7155 36.5 40.9199C34.6165 41.1414 32.1717 43.3567 30.6375 45.661" stroke="#2A324B" stroke-width="3" stroke-linecap="round"/>
<path d="M42.1154 33.4707C39.8877 31.5647 37.9317 32.0878 35.9119 32.4199C32.8069 33.4199 30.4333 34.9272 28.6669 37.4199" stroke="#2A324B" stroke-width="3" stroke-linecap="round"/>
<path d="M46.0026 62.5674C47.4807 64.1754 50.1583 64.3495 52.0722 64.1292C53.4058 63.8098 54.4203 63.3255 55.3709 62.7067C56.2774 62.1167 57.1258 61.4044 58.1376 60.5963" stroke="#2A324B" stroke-width="3" stroke-linecap="round"/>
<path d="M49.8431 77.9199C43.2949 77.9199 37.2438 74.3285 32.776 68.2777C28.3085 62.2272 25.5 53.7972 25.5 44.4199C25.5 35.0427 28.3085 26.6126 32.776 20.5622C37.2438 14.5113 43.2949 10.9199 49.8431 10.9199C53.911 10.9199 57.4891 11.9783 60.4989 14.0965C63.5144 16.2188 66.0491 19.4687 67.9156 23.9921C70.327 29.836 71.4942 38.9346 71.4942 46.4199C71.4942 47.0804 71.4957 47.7013 71.4971 48.2876C71.5048 51.419 71.5101 53.5641 71.2671 55.4837C70.99 57.672 70.3849 59.5651 68.9773 62.2166C67.0625 65.8233 64.103 69.8015 60.6576 72.8585C57.1841 75.9405 53.4086 77.9199 49.8431 77.9199Z" stroke="#2A324B" stroke-width="3"/>
<ellipse cx="35.5728" cy="43.9199" rx="2" ry="3.5" fill="#2A324B"/>
<ellipse cx="65.5728" cy="38.9199" rx="2" ry="3.5" fill="#2A324B"/>
<path d="M72 55.4199C79 44.4199 80.2247 24.4405 74 14.9199C67.7752 5.39935 49.668 8.1494 41.5 11.9199" stroke="#2A324B" stroke-width="3" stroke-linecap="round"/>
<path d="M38.465 57.561C37.9501 57.5951 37.5374 58.045 37.3079 58.4154C37.1795 58.6971 37.1277 58.9456 37.1104 59.2018C37.0939 59.4461 37.1089 59.6975 37.1189 59.9914" stroke="#2A324B" stroke-width="3" stroke-linecap="round"/>
<path d="M42.0655 11.8201C35.8523 10.9552 19.6503 18.4315 15.547 34.5572C11.2962 51.2629 22.1892 76.64 26.5728 93.9315C30.0053 107.471 24.8515 120.699 24.5728 123.931" stroke="#2A324B" stroke-width="3" stroke-linecap="round"/>
<path d="M41.9201 106.103C43.1894 105.519 45.3746 100.762 44.2832 94.8305C42.2672 83.8742 33.3039 71.2212 32.5728 68.6879" stroke="#2A324B" stroke-width="3" stroke-linecap="round"/>
<path d="M16 48.6982C19.306 48.6978 22.1277 48.4137 25.8034 43.6364C31.6153 35.1573 37.107 22.1435 41.0467 12.8591" stroke="#2A324B" stroke-width="3" stroke-linecap="round"/>
</g>
<defs>
<clipPath id="clip0">
<rect width="91" height="130" fill="white"/>
</clipPath>
</defs>
</svg>
